<?xml version="1.0" encoding="UTF-8"?>
<!-- Generator: Adobe Illustrator 26.0.3, SVG Export Plug-In . SVG Version: 6.00 Build 0)  -->
<svg version="1.1" xmlns="http://www.w3.org/2000/svg" xmlns:xlink="http://www.w3.org/1999/xlink" x="0px" y="0px" viewBox="0 0 1024 1024" style="" xml:space="preserve">
<style type="text/css">
	.st0{fill:#6A1B9A;stroke:#BA68C8;stroke-width:34;stroke-miterlimit:10;}
	.st1{fill:#FFEB3B;}
	.st2{fill:#FFB300;}
	.st3{fill:#F57F17;}
	.st4{fill:#212121;}
	.st5{fill:#FFFFFF;}
	.st6{fill:#FFFFFF;stroke:#827717;stroke-width:10;stroke-miterlimit:10;}
</style>
<g id="bg">
	<path class="st0" d="M796.3,980.5H227.7c-101.73,0-184.2-82.47-184.2-184.2V227.7c0-101.73,82.47-184.2,184.2-184.2h568.6   c101.73,0,184.2,82.47,184.2,184.2v568.6C980.5,898.03,898.03,980.5,796.3,980.5z"/>
</g>
<g id="head">
	<path class="st1" d="M884.06,543.32c0,144.32,0.44,213.17-372.06,213.17s-372.94-68.85-372.94-213.17S305.84,282,511.56,282   S884.06,399,884.06,543.32z"/>
</g>
<g id="whiskers2">
	<polygon class="st2" points="843,571 874.08,571 944,290 912.92,290  "/>
	<polygon class="st2" points="181,571 149.92,571 80,290 111.08,290  "/>
</g>
<g id="mouth">
	<path class="st3" d="M903.89,628.77c0,113.61-49.31,145.23-85.05,145.23c-48.4,0-90.61-2.63-144.01-5.25   c-77.9-3.83-163.71-6.13-163.71-6.13s-76.16-2.63-167.21,0c-44,1.27-90.66,11.08-139.07,11.08c-35.74,0-85.05-31.62-85.05-145.23   s52.93-130,85.5-130c48.4,0,68.66,18.96,111.28,29.28c62.88,15.23,195.42,16.4,195.42,16.4s132.23-0.87,195.11-16.09   c42.62-10.32,62.88-29.28,111.28-29.28C850.97,498.77,903.89,515.16,903.89,628.77z"/>
	<path class="st4" d="M702.52,642.06c0,35.32-23.93,45.16-41.27,45.16c-23.49,0-43.97-0.82-69.89-1.63   c-37.8-1.19-79.44-1.91-79.44-1.91s-36.96-0.82-81.14,0c-21.35,0.39-44,3.44-67.49,3.44c-17.34,0-41.27-9.83-41.27-45.16   c0-35.32,25.68-40.42,41.49-40.42c23.49,0,33.32,5.9,54,9.1c30.51,4.73,94.83,5.1,94.83,5.1s64.17-0.27,94.68-5   c20.68-3.21,30.51-9.1,54-9.1C676.84,601.63,702.52,606.73,702.52,642.06z"/>
</g>
<g id="eyes">
	<g>
		<g>
			<circle class="st5" cx="606.15" cy="396.68" r="65.18"/>
			<circle class="st5" cx="606.15" cy="396.68" r="29.73"/>
		</g>
		<g>
			<circle class="st5" cx="417.85" cy="396.68" r="65.18"/>
			<circle class="st5" cx="417.85" cy="396.68" r="29.73"/>
		</g>
	</g>
	<g>
		<g>
			<circle class="st6" cx="606.15" cy="396.68" r="65.18"/>
			<circle class="st4" cx="606.15" cy="396.68" r="29.73"/>
		</g>
		<g>
			<circle class="st6" cx="417.85" cy="396.68" r="65.18"/>
			<circle class="st4" cx="417.85" cy="396.68" r="29.73"/>
		</g>
	</g>
</g>
</svg>